# xmcd
#
# Track frame offsets:
#	150
#	12587
#	29650
#	48720
#	79942
#	90675
#	116915
#	137485
#	151720
#	166462
#	186262
#	197707
#
# Disc length: 3112
#
# Revision: 1
# Processed by: cddbd v1.5.1PL0 Copyright (c) Steve Scherf et al.
# Submitted via: CDex 1.50
# Normalized: r0:DSETVAR1
#
DISCID=a40c260c
DTITLE=Various Artist - Lullabies for Lovers
DYEAR=1900
DGENRE=Jazz
TTITLE0=Nancy Wilson - Prelude to a Kiss
TTITLE1=Ike Quebec - Liebestraum
TTITLE2=Miles Davis - Dear Old Stockholm
TTITLE3=Bill Evans - As Time Goes By
TTITLE4=Laurindo Almeida - Speak Low
TTITLE5=Lee Morgan - Yesterday
TTITLE6=Duke Parson - I Love You
TTITLE7=June Christy - Misty
TTITLE8=Woody Herman - Early Autumn
TTITLE9=Art Pepper - Body and Soul
TTITLE10=Duke Ellington - In a Sentimental Mood
TTITLE11=John Coltraane - I'm Old Fashioned
EXTD=
EXTT0=
EXTT1=
EXTT2=
EXTT3=
EXTT4=
EXTT5=
EXTT6=
EXTT7=
EXTT8=
EXTT9=
EXTT10=
EXTT11=
PLAYORDER=
